<mxfile host="65bd71144e">
    <diagram id="ZMB-NqUYSggqPqZoWpW4" name="Page-1">
        <mxGraphModel dx="861" dy="604" grid="1" gridSize="10" guides="1" tooltips="1" connect="1" arrows="1" fold="1" page="1" pageScale="1" pageWidth="850" pageHeight="1100" math="0" shadow="0">
            <root>
                <mxCell id="0"/>
                <mxCell id="1" parent="0"/>
                <mxCell id="2" value="Repositories" style="html=1;fontSize=18;" vertex="1" parent="1">
                    <mxGeometry x="330" y="240" width="150" height="50" as="geometry"/>
                </mxCell>
                <mxCell id="3" value="Database" style="shape=datastore;whiteSpace=wrap;html=1;fontSize=18;" vertex="1" parent="1">
                    <mxGeometry x="320" y="340" width="170" height="140" as="geometry"/>
                </mxCell>
                <mxCell id="4" value="" style="shape=doubleArrow;direction=south;whiteSpace=wrap;html=1;fontSize=18;" vertex="1" parent="1">
                    <mxGeometry x="385" y="290" width="40" height="70" as="geometry"/>
                </mxCell>
            </root>
        </mxGraphModel>
    </diagram>
</mxfile>